<?xml version="1.0" encoding="UTF-8"?>
<svg width="441px" height="107px" viewBox="0 0 441 107" version="1.1" xmlns="http://www.w3.org/2000/svg" xmlns:xlink="http://www.w3.org/1999/xlink">
    <!-- Generator: Sketch 56.3 (81716) - https://sketch.com -->
    <title>Newton Agham_CMYK</title>
    <desc>Created with Sketch.</desc>
    <defs>
        <linearGradient x1="-17.0338017%" y1="116.996987%" x2="119.075199%" y2="-18.9793424%" id="linearGradient-1">
            <stop stop-color="#4C4A8B" offset="0%"></stop>
            <stop stop-color="#455493" offset="8%"></stop>
            <stop stop-color="#2083BC" offset="50%"></stop>
            <stop stop-color="#09A1D5" offset="82%"></stop>
            <stop stop-color="#00ACDF" offset="100%"></stop>
        </linearGradient>
        <linearGradient x1="8.49024307%" y1="38.9477102%" x2="67.4768915%" y2="56.1210648%" id="linearGradient-2">
            <stop stop-color="#1F437F" offset="0%"></stop>
            <stop stop-color="#4A6798" stop-opacity="0.92" offset="10%"></stop>
            <stop stop-color="#8B9EBD" stop-opacity="0.81" offset="28%"></stop>
            <stop stop-color="#BEC8DA" stop-opacity="0.72" offset="46%"></stop>
            <stop stop-color="#E2E7EF" stop-opacity="0.65" offset="63%"></stop>
            <stop stop-color="#F8F9FB" stop-opacity="0.61" offset="82%"></stop>
            <stop stop-color="#FFFFFF" stop-opacity="0.6" offset="100%"></stop>
        </linearGradient>
        <linearGradient x1="29.8293098%" y1="12.5974659%" x2="49.78572%" y2="52.3026316%" id="linearGradient-3">
            <stop stop-color="#1F437F" offset="0%"></stop>
            <stop stop-color="#2F5088" stop-opacity="0.97" offset="15%"></stop>
            <stop stop-color="#5A74A1" stop-opacity="0.89" offset="38%"></stop>
            <stop stop-color="#A0AFC9" stop-opacity="0.77" offset="67%"></stop>
            <stop stop-color="#FFFFFF" stop-opacity="0.6" offset="100%"></stop>
        </linearGradient>
        <linearGradient x1="54.3233718%" y1="107.602339%" x2="52.0008978%" y2="73.0750487%" id="linearGradient-4">
            <stop stop-color="#1F437F" offset="0%"></stop>
            <stop stop-color="#2F5088" stop-opacity="0.97" offset="15%"></stop>
            <stop stop-color="#5A74A1" stop-opacity="0.89" offset="38%"></stop>
            <stop stop-color="#A0AFC9" stop-opacity="0.77" offset="67%"></stop>
            <stop stop-color="#FFFFFF" stop-opacity="0.6" offset="100%"></stop>
        </linearGradient>
        <linearGradient x1="100.650462%" y1="57.6653953%" x2="26.0527217%" y2="43.6187222%" id="linearGradient-5">
            <stop stop-color="#1F437F" offset="0%"></stop>
            <stop stop-color="#416093" stop-opacity="0.94" offset="11%"></stop>
            <stop stop-color="#93A4C1" stop-opacity="0.79" offset="39%"></stop>
            <stop stop-color="#CED6E3" stop-opacity="0.69" offset="64%"></stop>
            <stop stop-color="#F2F4F8" stop-opacity="0.62" offset="86%"></stop>
            <stop stop-color="#FFFFFF" stop-opacity="0.6" offset="100%"></stop>
        </linearGradient>
    </defs>
    <g id="Page-1" stroke="none" stroke-width="1" fill="none" fill-rule="evenodd">
        <g id="Newton-Agham_CMYK" transform="translate(-14.000000, -13.000000)">
            <polygon id="Path" fill="#2B2E30" fill-rule="nonzero" points="145.7 31.63 153.7 31.63 164.09 50.06 164.17 50.06 164.17 31.63 171.5 31.63 171.5 61.54 163.5 61.54 153.11 42.9 153 42.9 153 61.54 145.7 61.54"></polygon>
            <path d="M180.88,52.41 C181.01,55.41 182.72,57.35 185.74,57.35 C187.447412,57.4743155 189.057346,56.5424571 189.8,55 L196.46,55 C195.12,60 190.46,62.21 185.65,62.21 C178.58,62.21 173.759948,57.93 173.759948,50.65 C173.750667,47.5624106 174.993047,44.6028505 177.203465,42.4470801 C179.413884,40.2913097 182.403611,39.1233923 185.49,39.21 C193.28,39.21 197.17,45.07 196.84,52.45 L180.88,52.41 Z M189.72,48.41 C189.737645,46.0367575 187.861918,44.0812121 185.49,44 C182.97,44 181.34,45.76 180.88,48.44 L189.72,48.41 Z" id="Shape" fill="#2B2E30" fill-rule="nonzero"></path>
            <polygon id="Path" fill="#2B2E30" fill-rule="nonzero" points="224.56 61.54 217.36 61.54 213.92 47.09 213.84 47.09 210.45 61.54 203.24 61.54 196.46 39.8 203.66 39.8 207.31 53.87 207.39 53.87 210.49 39.8 217.27 39.8 220.46 53.8 220.54 53.8 224.1 39.8 231.35 39.8"></polygon>
            <path d="M247.72,44.41 L243.32,44.41 L243.32,54.29 C243.32,56.01 244.32,56.39 245.88,56.39 C246.51,56.39 247.09,56.3 247.72,56.3 L247.72,61.54 C246.42,61.54 245.12,61.75 243.82,61.75 C237.75,61.75 236.2,59.95 236.2,54.08 L236.2,44.41 L232.6,44.41 L232.6,39.8 L236.2,39.8 L236.2,33.22 L243.32,33.22 L243.32,39.8 L247.72,39.8 L247.72,44.41 Z" id="Path" fill="#2B2E30" fill-rule="nonzero"></path>
            <path d="M260.72,39.17 C263.798384,39.0800478 266.777102,40.2662037 268.950986,42.4476629 C271.124871,44.629122 272.300659,47.6119477 272.2,50.69 C272.2,57.0191832 267.069183,62.15 260.74,62.15 C254.410817,62.15 249.28,57.0191832 249.28,50.69 C249.168008,47.615737 250.33457,44.6324378 252.502252,42.4495975 C254.669934,40.2667573 257.645031,39.0794341 260.72,39.17 L260.72,39.17 Z M260.72,56.72 C264.07,56.72 265.08,53.5 265.08,50.72 C265.08,47.94 264.08,44.65 260.72,44.65 C257.36,44.65 256.41,47.95 256.41,50.72 C256.41,53.49 257.41,56.72 260.72,56.72 Z" id="Shape" fill="#2B2E30" fill-rule="nonzero"></path>
            <path d="M274.91,39.8 L281.83,39.8 L281.83,42.8 L281.91,42.8 C283.452445,40.5457023 286.008519,39.1984305 288.74,39.1999986 C295.98,39.1999986 296.57,44.48 296.57,47.62 L296.57,61.54 L289.45,61.54 L289.45,48.85 C289.45,46.75 288.74,45.03 285.89,45.03 C283.21,45.03 282.04,47.34 282.04,49.68 L282.04,61.54 L274.91,61.54 L274.91,39.8 Z" id="Path" fill="#2B2E30" fill-rule="nonzero"></path>
            <path d="M322.91,31.63 L330.83,31.63 L342,61.54 L333.87,61.54 L332,56.18 L321.61,56.18 L319.73,61.54 L311.73,61.54 L322.91,31.63 Z M323.41,50.4 L330.2,50.4 L326.89,39.92 L326.8,39.92 L323.41,50.4 Z" id="Shape" fill="#2B2E30" fill-rule="nonzero"></path>
            <path d="M365.2,58.9 C365.2,62.42 364.53,69.16 354.35,69.16 C349.35,69.16 344.47,68.03 343.67,62.21 L350.79,62.21 C350.87351,62.9926927 351.322187,63.6898107 352,64.09 C352.817217,64.4379668 353.70294,64.5952768 354.59,64.55 C357.99,64.55 358.32,62.17 358.32,59.49 L358.32,57.43 L358.24,57.43 C356.986635,59.4128709 354.805781,60.616491 352.46,60.62 C345.88,60.62 342.91,55.92 342.91,49.81 C342.91,44.03 346.3,39.17 352.46,39.17 C354.886696,39.0585976 357.157469,40.3656577 358.28,42.52 L358.36,42.52 L358.36,39.8 L365.19,39.8 L365.2,58.9 Z M354.2,44.62 C351.05,44.62 350.05,47.38 350.05,50.06 C350.05,52.74 351.26,55.17 354.15,55.17 C357.04,55.17 358.47,52.78 358.47,50.1 C358.47,47.42 357.33,44.62 354.19,44.62 L354.2,44.62 Z" id="Shape" fill="#2B2E30" fill-rule="nonzero"></path>
            <path d="M369.67,31.63 L376.79,31.63 L376.79,42.77 L376.87,42.77 C378,40.55 380.87,39.17 383.49,39.17 C390.74,39.17 391.32,44.45 391.32,47.59 L391.32,61.54 L384.2,61.54 L384.2,48.85 C384.2,46.75 383.49,45.03 380.64,45.03 C377.96,45.03 376.79,47.34 376.79,49.68 L376.79,61.54 L369.67,61.54 L369.67,31.63 Z" id="Path" fill="#2B2E30" fill-rule="nonzero"></path>
            <path d="M395.58,46.5 C395.562205,44.0784816 396.875907,41.8428837 399,40.68 C401.134442,39.5888227 403.514956,39.0686236 405.91,39.17 C411,39.17 416,40.3 416,46.46 L416,56 C415.856767,57.8962408 416.143919,59.8003345 416.84,61.57 L409.67,61.57 C409.453584,60.9216949 409.312653,60.2505952 409.25,59.57 C407.337324,61.4161237 404.744781,62.3865169 402.09,62.25 C397.9,62.25 394.68,60.15 394.68,55.67 C394.68,48.67 402.39,49.14 407.33,48.13 C408.54,47.84 409.21,47.46 409.21,46.13 C409.21,44.5 407.21,43.87 405.78,43.87 C403.73,43.87 402.55,44.79 402.22,46.59 L395.58,46.5 Z M404.79,57.77 C408.19,57.77 409.32,55.88 409.15,51.36 C408.15,51.99 406.3,52.07 404.75,52.53 C403.2,52.99 401.82,53.53 401.82,55.3 C401.82,57.07 403.16,57.77 404.79,57.77 L404.79,57.77 Z" id="Shape" fill="#2B2E30" fill-rule="nonzero"></path>
            <path d="M420.55,39.8 L427.46,39.8 L427.46,42.8 L427.55,42.8 C428.833945,40.5678487 431.214931,39.1942027 433.79,39.2 C436.51,39.2 438.94,40.08 440.11,42.72 C441.604661,40.4429043 444.177704,39.1090146 446.9,39.2 C453.81,39.2 454.56,44.44 454.56,48.58 L454.56,61.58 L447.44,61.58 L447.44,48.76 C447.44,46.42 446.31,45.03 444.44,45.03 C441.38,45.03 441.09,47.38 441.09,50.9 L441.09,61.54 L434,61.54 L434,49.18 C434,46.63 433.28,45.03 431.31,45.03 C428.76,45.03 427.67,46.54 427.67,50.94 L427.67,61.54 L420.55,61.54 L420.55,39.8 Z" id="Path" fill="#2B2E30" fill-rule="nonzero"></path>
            <polygon id="Path" fill="#2B2E30" fill-rule="nonzero" points="146.29 71.61 166.94 71.61 166.94 76.13 151.52 76.13 151.52 84 165.05 84 165.05 88.28 151.52 88.28 151.52 101.55 146.29 101.55"></polygon>
            <path d="M187.85,101.51 L183.16,101.51 L183.16,98.51 L183.08,98.51 C181.798629,100.705787 179.462026,102.071334 176.92,102.11 C171.23,102.11 168.84,99.3 168.84,93.61 L168.84,79.86 L173.61,79.86 L173.61,93.14 C173.61,96.95 175.12,98.33 177.76,98.33 C181.76,98.33 183.08,95.78 183.08,92.42 L183.08,79.86 L187.85,79.86 L187.85,101.51 Z" id="Path" fill="#2B2E30" fill-rule="nonzero"></path>
            <path d="M192.5,79.86 L197,79.86 L197,83 L197.08,83.09 C198.485537,80.6966083 201.054419,79.2275885 203.83,79.229997 C208.56,79.229997 211.49,81.7 211.49,86.6 L211.49,101.47 L206.72,101.47 L206.72,87.9 C206.59,84.51 205.33,83.04 202.49,83.04 C199.3,83.04 197.25,85.56 197.25,88.74 L197.25,101.51 L192.5,101.51 L192.5,79.86 Z" id="Path" fill="#2B2E30" fill-rule="nonzero"></path>
            <path d="M236.54,101.51 L232,101.51 L232,98.58 L231.91,98.58 C230.61,101.1 227.91,102.1 225.21,102.1 C218.38,102.1 215.07,97.03 215.07,90.54 C215.07,82.67 219.72,79.27 224.46,79.27 C227.14,79.27 230.19,80.27 231.66,82.67 L231.74,82.67 L231.74,71.61 L236.52,71.61 L236.54,101.51 Z M225.86,98.33 C230.09,98.33 231.93,94.44 231.93,90.67 C231.93,85.85 229.63,83.04 225.93,83.04 C221.45,83.04 219.86,87.04 219.86,90.92 C219.86,94.8 221.71,98.33 225.86,98.33 L225.86,98.33 Z" id="Shape" fill="#2B2E30" fill-rule="nonzero"></path>
            <path d="M110.74,14 C108.5,14.18 108.46,14.18 110.74,14 C110.142245,13.8958227 109.536761,13.8422993 108.93,13.84 L25.14,13.84 C19.1863704,13.84 14.359981,18.6663704 14.359981,24.62 L14.359981,108.37 C14.3502283,113.611933 18.1159701,118.099583 23.28,119 C24.28,118.92 24.34,118.93 23.28,119 C23.87,119.1 108.83,119.17 108.83,119.17 C114.78363,119.17 119.610017,114.34363 119.610017,108.39 L119.610017,24.62 C119.619173,19.3976769 115.880424,14.9212946 110.74,14 Z" id="Path" fill="#FFFFFF" fill-rule="nonzero"></path>
            <path d="M17.66,98.17 C16.56,98.08 15.46,97.96 14.36,97.83 L14.36,24.62 C14.3655192,18.670276 19.1902735,13.85 25.14,13.85 L45.74,13.85 C47.6466667,14.29 49.5266667,14.79 51.38,15.35 C53.21,15.91 55.01,16.52 56.77,17.2 L56.77,17.2 C58.02,17.68 59.24,18.2 60.44,18.73 L61.05,19 C62.25,19.55 63.43,20.12 64.58,20.73 L64.76,20.82 C67.1778086,22.0926106 69.5155074,23.5119277 71.76,25.07 C70.86,25.55 69.98,26.07 69.11,26.56 L68.54,26.89 C67.7,27.39 66.88,27.89 66.07,28.42 L65.52,28.77 C64.7,29.31 63.88,29.86 63.09,30.43 L62.9,30.56 C62.15,31.11 61.4,31.66 60.68,32.23 L60.21,32.59 C59.48,33.17 58.76,33.76 58.06,34.36 L57.59,34.77 C56.88,35.38 56.19,36.01 55.52,36.64 L55.29,36.87 C54.66,37.47 54.05,38.09 53.45,38.71 L53.1,39.07 C52.48,39.73 51.89,40.39 51.31,41.07 L50.92,41.53 C50.35,42.21 49.78,42.9 49.25,43.6 L49.02,43.9 C48.52,44.57 48.02,45.25 47.56,45.9 L47.33,46.23 C46.85,46.96 46.33,47.69 45.94,48.43 L45.65,48.91 C45.22,49.65 44.8,50.4 44.41,51.16 C44.34,51.28 44.29,51.4 44.22,51.52 C43.85,52.26 43.5,53 43.17,53.75 C43.1072866,53.8290571 43.050467,53.9126154 43,54 C42.65,54.79 42.34,55.58 42,56.38 C41.94,56.55 41.87,56.71 41.82,56.87 C41.5333333,57.67 41.2733333,58.47 41.04,59.27 L40.92,59.69 C40.7,60.5 40.49,61.31 40.31,62.12 C40.3145473,62.1732364 40.3145473,62.2267636 40.31,62.28 C40.13,63.12 39.99,63.97 39.86,64.82 C39.86,64.99 39.86,65.15 39.79,65.32 C39.67,66.15 39.58,66.99 39.52,67.83 C39.52,67.99 39.52,68.15 39.52,68.31 C39.46,69.19 39.42,70.07 39.42,70.95 L39.42,70.95 C39.42,72.81 39.42,74.48 39.56,76.16 L39.56,76.59 L39.61,76.59 C39.61,76.83 39.61,77.07 39.68,77.32 C39.944122,80.8379624 40.6876649,84.3033435 41.89,87.62 C42.13,88.28 42.38,88.94 42.66,89.62 C43.215912,90.9269505 43.8435331,92.2022232 44.54,93.44 L44.54,93.44 C45.04,94.34 45.59,95.21 46.16,96.08 L46.16,96.08 C43.85,96.62 41.49,97.08 39.09,97.42 L38.85,97.42 C37.85,97.57 36.85,97.7 35.78,97.82 L35,98 C33.88,98.12 32.75,98.22 31.6,98.3 C30.45,98.38 29.51,98.42 28.45,98.46 C27.39,98.5 26.35,98.46 25.3,98.46 C22.75,98.48 20.2,98.37 17.66,98.17 Z M108.73,34.52 C107.16,34.52 105.58,34.52 104,34.65 C103.48,34.65 103,34.65 102.43,34.73 C101.28,34.8 100.15,34.91 99.03,35.02 L98.25,35.11 C97.25,35.23 96.19,35.35 95.18,35.5 L94.94,35.5 C92.54,35.86 90.1833333,36.3066667 87.87,36.84 L87.87,36.84 C88.44,37.71 88.99,38.58 89.5,39.48 L89.5,39.48 C92.2819096,44.4213642 93.9412222,49.9148496 94.36,55.57 C94.36,55.81 94.41,56.06 94.43,56.3 L94.43,56.3 L94.43,56.73 L94.43,56.73 C94.434941,56.7665002 94.434941,56.8034998 94.43,56.84 C94.55,58.47 94.56,60.11 94.56,61.92 L94.56,61.92 L94.56,61.92 C94.56,62.81 94.56,63.7 94.46,64.58 C94.46,64.74 94.46,64.9 94.46,65.05 C94.39,65.9 94.3,66.73 94.19,67.57 C94.19,67.73 94.19,67.9 94.11,68.06 C93.98,68.91 93.84,69.76 93.66,70.61 C93.66,70.61 93.66,70.71 93.66,70.76 C93.48,71.58 93.28,72.39 93.05,73.2 L92.93,73.61 C92.7033333,74.4233333 92.4433333,75.2233333 92.15,76.01 C92.1,76.18 92.04,76.34 91.98,76.5 C91.68,77.3 91.37,78.1 90.98,78.89 C90.98,78.97 90.9,79.06 90.87,79.14 C90.53,79.9 90.18,80.64 89.8,81.38 C89.74,81.5 89.69,81.62 89.62,81.74 C89.23,82.5 88.81,83.25 88.38,83.99 L88.09,84.47 C87.65,85.21 87.18,85.94 86.7,86.66 L86.47,86.99 C86,87.68 85.47,88.36 85.01,88.99 C84.931138,89.0823452 84.8576821,89.1791735 84.79,89.28 C84.25,89.98 83.69,90.68 83.11,91.36 L82.72,91.81 C82.14,92.48 81.55,93.15 80.93,93.81 L80.58,94.17 C79.98,94.8 79.37,95.41 78.74,96.02 L78.51,96.24 C77.84,96.88 77.15,97.5 76.44,98.12 L75.97,98.53 C75.27,99.13 74.55,99.72 73.82,100.3 L73.35,100.66 C72.63,101.22 71.89,101.78 71.13,102.32 L70.94,102.46 C70.15,103.02 69.33,103.57 68.51,104.11 L67.96,104.47 C67.15,104.99 66.33,105.47 65.5,105.99 L64.92,106.33 C64.05,106.83 63.17,107.33 62.28,107.81 L62.28,107.81 C64.520969,109.373488 66.8590119,110.793014 69.28,112.06 L69.45,112.16 C70.6,112.76 71.78,113.33 72.99,113.88 C73.19,113.98 73.39,114.06 73.59,114.15 C74.79,114.69 76.02,115.21 77.27,115.69 C78.52,116.17 79.98,116.69 81.36,117.12 C82.74,117.55 84.06,117.96 85.43,118.33 C86.43,118.58 87.33,118.81 88.3,119.04 L108.9,119.04 C114.85363,119.04 119.68,114.21363 119.68,108.26 L119.68,35.16 C118.58,35.04 117.48,34.92 116.38,34.83 C113.82,34.62 111.27,34.52 108.73,34.52 L108.73,34.52 Z M71.82,117 L71.32,116.77 C69.98,116.16 68.67,115.5 67.4,114.77 L66.86,114.48 C65.58,113.78 64.33,113.05 63.12,112.28 L62.76,112.05 C61.5,111.24 60.27,110.41 59.09,109.53 L59.09,109.53 L59.02,109.53 C58.08,109.99 57.12,110.42 56.15,110.85 L55.25,111.23 C54.51,111.55 53.77,111.85 53.02,112.15 L52.1,112.51 C51.1,112.9 50.04,113.29 48.99,113.65 L48.93,113.65 C47.93,114 46.84,114.34 45.78,114.65 L44.78,114.95 C43.98,115.18 43.18,115.41 42.37,115.62 L41.37,115.89 C40.26,116.18 39.15,116.45 38.02,116.7 L38.02,116.7 C36.9,116.95 35.77,117.17 34.63,117.39 L33.63,117.58 C32.7766667,117.733333 31.9166667,117.873333 31.05,118 L29.99,118.16 C28.8166667,118.333333 27.6366667,118.483333 26.45,118.61 L26.4,118.61 C25.4,118.72 24.4,118.81 23.4,118.89 C23.9974703,118.99753 24.6029562,119.054399 25.21,119.06 L77.21,119.06 C76.86,118.93 76.5,118.81 76.15,118.67 C74.65,118.2 73.22,117.59 71.82,117 Z M57.91,14.24 L57.91,14.24 C59.38,14.8 60.8,15.41 62.2,16.04 L62.7,16.26 C64.04,16.88 65.35,17.54 66.63,18.26 L67.16,18.55 C68.44,19.25 69.69,19.98 70.9,20.75 L71.26,20.98 C72.52,21.78 73.75,22.62 74.93,23.49 L74.93,23.49 L74.99,23.49 C75.93,23.03 76.89,22.6 77.87,22.17 L78.77,21.78 C79.51,21.47 80.25,21.16 81,20.87 C81.31,20.75 81.61,20.62 81.92,20.51 C82.92,20.11 83.98,19.73 85.04,19.37 L85.04,19.37 C86.04,19.01 87.14,18.68 88.2,18.37 L89.2,18.08 L91.62,17.4 L92.62,17.14 C93.73,16.85 94.85,16.58 95.98,16.32 L95.98,16.32 C97.1,16.07 98.25,15.84 99.39,15.63 L100.39,15.44 C101.24,15.29 102.11,15.15 102.98,15.02 L103.98,14.86 C106.146667,14.5466667 108.346667,14.2966667 110.58,14.11 C109.982245,14.0058227 109.376761,13.9522993 108.77,13.95 L56.77,13.95 L57.07,14.06 L57.91,14.24 Z M49.43,95.3 C50.62,94.98 51.8,94.62 52.96,94.3 L53.46,94.14 C55.76,93.3933333 57.9833333,92.5566667 60.13,91.63 L60.59,91.43 C61.66,90.96 62.7,90.48 63.72,89.97 C63.8,89.97 63.88,89.89 63.96,89.85 C64.9333333,89.37 65.8833333,88.87 66.81,88.35 L67.17,88.15 C68.17,87.61 69.07,87.05 69.98,86.47 L70.39,86.21 C71.27,85.65 72.13,85.07 72.96,84.48 L73.12,84.37 C73.98,83.75 74.81,83.11 75.62,82.46 L76.08,82.09 C77.6575774,80.8002123 79.1631751,79.4248104 80.59,77.97 C80.73,77.83 80.87,77.69 81,77.54 C81.68,76.83 82.33,76.11 83,75.37 L83.2,75 C83.76,74.33 84.3,73.64 84.81,72.94 C84.92,72.8 85.03,72.66 85.13,72.51 C85.6833333,71.75 86.2033333,70.98 86.69,70.2 C86.79,70.04 86.88,69.88 86.98,69.73 C87.42,69 87.84,68.27 88.23,67.53 L88.41,67.21 C88.83,66.39 89.22,65.57 89.58,64.73 L89.81,64.17 C90.17,63.31 90.5,62.45 90.81,61.57 C90.95,60.76 91.05,60.06 91.12,59.4 C91.12,59.18 91.18,58.95 91.2,58.74 C91.2,58.23 91.27,57.69 91.29,57 C91.2026407,54.9102511 90.9315958,52.8322398 90.48,50.79 C90.33,50.11 90.16,49.44 89.97,48.79 C89.7,47.87 89.39,46.96 89.05,46.06 C88.4080212,44.3371189 87.6357891,42.6656208 86.74,41.06 C86.74,40.96 86.63,40.87 86.57,40.77 C86.3,40.29 86.02,39.77 85.72,39.34 C85.42,38.91 85,38.22 84.61,37.67 L84.61,37.67 C83.42,38 82.24,38.35 81.08,38.73 L80.58,38.89 C78.28,39.64 76.06,40.48 73.9,41.4 L73.45,41.6 C72.39,42.06 71.34,42.6 70.31,43.05 L70.09,43.17 C69.09,43.65 68.16,44.17 67.22,44.68 L66.88,44.87 C65.9,45.43 65,46 64,46.58 L63.6,46.84 C62.73,47.4 61.87,47.97 61.03,48.57 L60.87,48.68 C60.01,49.3 59.18,49.94 58.36,50.59 L58,51 C56.4144651,52.2877873 54.9052453,53.6667868 53.48,55.13 L53,55.5 C52.32,56.21 51.67,56.94 51,57.67 L50.76,57.97 C50.2,58.64 49.66,59.33 49.15,60.03 L48.83,60.45 C48.28,61.21 47.76,61.98 47.27,62.77 C47.17,62.92 47.08,63.08 46.98,63.24 C46.54,63.96 46.12,64.69 45.73,65.43 L45.55,65.76 C45.13,66.57 44.75,67.4 44.39,68.23 C44.2997478,68.4189301 44.2196341,68.6125383 44.15,68.81 C43.79,69.66 43.46,70.52 43.15,71.39 L43.15,71.39 C42.97,72.45 42.85,73.33 42.77,74.16 L42.77,74.23 C42.77,74.48 42.77,74.74 42.71,75.03 C42.65,75.32 42.71,75.62 42.71,75.96 C42.7686972,77.3569914 42.908936,78.7493621 43.13,80.13 C43.4591001,82.1881469 43.971129,84.2128364 44.66,86.18 C45.361049,88.1641151 46.2309003,90.0844792 47.26,91.92 L47.45,92.25 C47.72,92.71 47.99,93.18 48.28,93.64 C48.57,94.1 49,94.75 49.39,95.3 L49.43,95.3 Z" id="Shape" fill="url(#linearGradient-1)" fill-rule="nonzero"></path>
            <path d="M81.34,117.23 C79.96,116.78 78.59,116.31 77.25,115.8 C75.91,115.29 74.77,114.8 73.57,114.26 C73.37,114.17 73.17,114.09 72.97,113.99 C71.76,113.45 70.58,112.87 69.43,112.27 L69.26,112.17 C66.8369645,110.906644 64.4986926,109.486979 62.26,107.92 C61.26,108.48 60.15,109.02 59.07,109.54 L59.07,109.54 C60.25,110.42 61.48,111.25 62.74,112.06 L63.1,112.29 C64.31,113.06 65.56,113.79 66.84,114.49 L67.38,114.78 C68.65,115.46 69.96,116.12 71.3,116.78 L71.8,117.01 C73.2,117.64 74.63,118.25 76.09,118.81 C76.44,118.95 76.8,119.07 77.15,119.2 L88.28,119.2 C87.28,118.97 86.36,118.74 85.41,118.49 C84,118.07 82.68,117.66 81.34,117.23 Z" id="Path" fill="url(#linearGradient-2)" fill-rule="nonzero" opacity="0.5"></path>
            <path d="M94.59,62 C94.59,60.19 94.59,58.55 94.46,56.92 C94.464941,56.8834998 94.464941,56.8465002 94.46,56.81 L94.46,56.81 L94.46,56.38 L94.46,56.38 C94.46,56.14 94.46,55.89 94.39,55.65 C93.9712222,49.9948496 92.3119096,44.5013642 89.53,39.56 L89.53,39.56 C89.02,38.66 88.47,37.79 87.9,36.92 L87.9,36.92 C86.8,37.1733333 85.71,37.4433333 84.63,37.73 L84.63,37.73 C85.02,38.28 85.39,38.84 85.74,39.4 C86.09,39.96 86.32,40.4 86.59,40.83 C86.65,40.93 86.71,41.02 86.76,41.12 C87.6557891,42.7256208 88.4280212,44.3971189 89.07,46.12 C89.41,47.02 89.72,47.93 89.99,48.85 C90.18,49.52 90.35,50.19 90.5,50.85 C90.9346717,52.873767 91.1923113,54.9315376 91.27,57 C91.27,57.69 91.27,58.23 91.18,58.74 C91.18,58.95 91.13,59.18 91.1,59.4 C91.03,60.06 90.93,60.76 90.79,61.57 C90.5,62.45 90.17,63.31 89.79,64.17 L89.56,64.73 C89.2,65.57 88.81,66.39 88.39,67.21 L88.21,67.53 C87.82,68.27 87.4,69 86.96,69.73 C86.86,69.88 86.77,70.04 86.67,70.2 C86.2233333,71 85.71,71.78 85.13,72.54 C85.03,72.69 84.92,72.83 84.81,72.97 C84.3,73.67 83.81,74.36 83.2,75.03 L82.96,75.32 C82.33,76.06 81.68,76.78 80.96,77.49 C80.83,77.64 80.69,77.78 80.55,77.92 C79.1350543,79.3600166 77.6428514,80.7220272 76.08,82 L75.62,82.37 C74.81,83.02 73.98,83.66 73.12,84.28 L72.96,84.39 C72.13,84.98 71.27,85.56 70.39,86.12 L69.98,86.38 C69.07,86.96 68.13,87.52 67.17,88.06 L66.81,88.26 C65.8766667,88.78 64.9266667,89.28 63.96,89.76 C63.88,89.76 63.8,89.85 63.72,89.88 C62.72,90.39 61.66,90.88 60.59,91.34 L60.13,91.54 C57.9766667,92.5133333 55.7533333,93.3633333 53.46,94.09 L52.96,94.25 C51.8,94.62 50.62,94.98 49.43,95.25 L49.43,95.25 C48.35,95.55 47.26,95.82 46.16,96.07 L46.16,96.07 C43.8533333,96.61 41.4966667,97.0566667 39.09,97.41 L38.85,97.41 C37.85,97.56 36.85,97.69 35.78,97.81 L35,98 C33.88,98.12 32.75,98.22 31.6,98.3 C30.45,98.38 29.51,98.42 28.45,98.46 C27.39,98.5 26.35,98.46 25.3,98.46 C22.76,98.46 20.21,98.35 17.67,98.15 C16.57,98.06 15.47,97.94 14.3699177,97.81 L14.3699177,98.13 L14.3699177,98.13 L14.3699177,108.35 C14.3496311,113.596303 18.1124809,118.093986 23.28,119 C24.28,118.92 25.28,118.84 26.28,118.73 L26.33,118.73 C27.5233333,118.603333 28.7033333,118.453333 29.87,118.28 L30.93,118.12 C31.8033333,117.993333 32.6633333,117.853333 33.51,117.7 L34.51,117.51 C35.65,117.29 36.78,117.07 37.9,116.82 L37.9,116.82 C39.03,116.57 40.14,116.3 41.25,116.01 L42.25,115.74 C43.06,115.53 43.86,115.3 44.66,115.07 L45.66,114.77 C46.72,114.45 47.78,114.11 48.81,113.77 L48.87,113.77 C49.87,113.41 50.95,113.02 51.98,112.63 L52.9,112.27 C53.65,111.97 54.39,111.67 55.13,111.35 L56.03,110.97 C57.03,110.54 57.96,110.11 58.9,109.65 L58.97,109.65 C60.05,109.13 61.12,108.59 62.16,108.03 L62.16,108.03 C63.05,107.55 63.93,107.03 64.8,106.55 L65.38,106.21 C66.21,105.72 67.03,105.21 67.84,104.69 L68.39,104.33 C69.21,103.79 70.03,103.24 70.82,102.68 L71.01,102.54 C71.77,102 72.51,101.44 73.23,100.88 L73.7,100.52 C74.43,99.94 75.15,99.35 75.85,98.75 L76.32,98.34 C77.03,97.72 77.72,97.1 78.39,96.46 L78.62,96.24 C79.25,95.63 79.86,95.02 80.46,94.39 L80.81,94.03 C81.43,93.38 82.02,92.71 82.6,92.03 L82.99,91.58 C83.56,90.9 84.13,90.2 84.67,89.5 C84.7376821,89.3991735 84.811138,89.3023452 84.89,89.21 C85.39,88.54 85.89,87.86 86.35,87.21 L86.58,86.88 C87.06,86.16 87.58,85.43 87.97,84.69 L88.26,84.21 C88.69,83.47 89.11,82.72 89.5,81.96 C89.57,81.84 89.62,81.72 89.68,81.6 C90.06,80.86 90.41,80.12 90.75,79.36 C90.75,79.28 90.83,79.19 90.86,79.11 C91.21,78.32 91.52,77.52 91.86,76.72 C91.92,76.56 91.98,76.4 92.03,76.23 C92.3166667,75.4366667 92.5766667,74.6366667 92.81,73.83 L92.93,73.42 C93.16,72.61 93.36,71.8 93.54,70.98 C93.54,70.98 93.54,70.88 93.54,70.83 C93.72,69.98 93.86,69.13 93.99,68.28 C93.99,68.12 93.99,67.95 94.07,67.79 C94.18,66.95 94.27,66.12 94.34,65.27 C94.34,65.12 94.34,64.96 94.34,64.8 C94.4,63.92 94.44,63.03 94.44,62.14 L94.44,62.14 L94.59,62 Z" id="Path" fill="url(#linearGradient-3)" fill-rule="nonzero" opacity="0.5"></path>
            <path d="M108.73,34.52 C111.27,34.52 113.82,34.62 116.36,34.83 C117.46,34.92 118.56,35.04 119.660005,35.16 L119.660005,24.62 C119.664902,19.3818419 115.900303,14.8997746 110.74,14 C108.5,14.18 106.283333,14.4266667 104.09,14.74 L103.09,14.89 L100.5,15.32 L99.5,15.51 C98.36,15.72 97.21,15.95 96.09,16.2 L96.09,16.2 C94.96,16.46 93.84,16.73 92.73,17.02 L91.73,17.28 L89.22,18 L88.22,18.29 C87.16,18.62 86.1,18.95 85.06,19.29 L85.06,19.29 C84,19.65 82.97,20.03 81.94,20.43 C81.63,20.54 81.33,20.67 81.02,20.79 C80.27,21.08 79.53,21.39 78.79,21.7 L77.89,22.09 C76.89,22.52 75.95,22.95 75.01,23.41 L74.95,23.41 L74.95,23.41 L74.87,23.46 C73.81,23.96 72.78,24.46 71.76,25.03 L71.76,25.03 C70.86,25.51 69.98,26.03 69.11,26.52 L68.54,26.85 C67.7,27.35 66.88,27.85 66.07,28.38 L65.52,28.73 C64.7,29.27 63.88,29.82 63.09,30.39 L62.9,30.52 C62.15,31.07 61.4,31.62 60.68,32.19 L60.21,32.55 C59.48,33.13 58.76,33.72 58.06,34.32 L57.59,34.73 C56.89,35.34 56.19,35.97 55.52,36.6 L55.29,36.83 C54.66,37.43 54.05,38.05 53.45,38.67 L53.1,39.03 C52.48,39.69 51.89,40.35 51.31,41.03 L50.92,41.49 C50.35,42.17 49.78,42.86 49.25,43.56 L49.02,43.86 C48.52,44.53 48.02,45.21 47.56,45.86 L47.33,46.19 C46.85,46.92 46.33,47.65 45.94,48.39 L45.65,48.87 C45.22,49.61 44.8,50.36 44.41,51.12 C44.34,51.24 44.29,51.36 44.22,51.48 C43.85,52.22 43.5,52.96 43.17,53.71 C43.1055277,53.801874 43.0486717,53.8988635 43,54 C42.65,54.79 42.34,55.58 42,56.38 C41.94,56.55 41.87,56.71 41.82,56.87 C41.5333333,57.67 41.2733333,58.47 41.04,59.27 L40.92,59.69 C40.7,60.5 40.49,61.31 40.31,62.12 C40.3145473,62.1732364 40.3145473,62.2267636 40.31,62.28 C40.13,63.12 39.99,63.97 39.86,64.82 C39.86,64.99 39.86,65.15 39.79,65.32 C39.67,66.15 39.58,66.99 39.52,67.83 C39.52,67.99 39.52,68.15 39.52,68.31 C39.46,69.19 39.42,70.07 39.42,70.95 L39.42,70.95 C39.42,72.81 39.42,74.48 39.56,76.16 L39.56,76.59 L39.61,76.59 C39.61,76.83 39.61,77.07 39.68,77.32 C39.944122,80.8379624 40.6876649,84.3033435 41.89,87.62 C42.13,88.28 42.38,88.94 42.66,89.62 C43.215912,90.9269505 43.8435331,92.2022232 44.54,93.44 L44.54,93.44 C45.04,94.34 45.59,95.21 46.16,96.08 L46.16,96.08 C47.26,95.83 48.35,95.56 49.43,95.26 L49.43,95.26 C49.04,94.71 48.67,94.16 48.32,93.6 C47.97,93.04 47.76,92.67 47.49,92.21 L47.3,91.88 C46.2709003,90.0444792 45.401049,88.1241151 44.7,86.14 C44.011129,84.1728364 43.4991001,82.1481469 43.17,80.09 C42.9520036,78.7358067 42.8117738,77.3702357 42.75,76 C42.75,75.66 42.75,75.35 42.75,75.07 C42.75,74.79 42.75,74.52 42.81,74.27 L42.81,74.2 C42.89,73.37 43.01,72.49 43.19,71.43 L43.19,71.43 C43.48,70.56 43.81,69.7 44.19,68.85 C44.2596341,68.6525383 44.3397478,68.4589301 44.43,68.27 C44.79,67.44 45.17,66.61 45.59,65.8 L45.77,65.47 C46.16,64.73 46.58,64 47.02,63.28 C47.12,63.12 47.21,62.96 47.31,62.81 C47.8,62.02 48.31,61.25 48.87,60.49 L49.19,60.07 C49.7,59.37 50.19,58.68 50.8,58.01 L51.04,57.71 C51.67,56.97 52.32,56.25 53.04,55.54 L53.45,55.12 C54.8852221,53.6593177 56.4044719,52.2836453 58,51 L58.44,50.64 C59.26,49.99 60.09,49.35 60.95,48.73 L61.11,48.62 C61.95,48.02 62.81,47.45 63.68,46.89 L64.08,46.63 C65,46.05 65.95,45.48 66.91,44.94 L67.25,44.75 C68.19,44.23 69.14,43.75 70.12,43.24 L70.34,43.12 C71.34,42.62 72.42,42.12 73.48,41.67 L73.93,41.47 C76.09,40.55 78.31,39.71 80.61,38.96 L81.11,38.8 C82.27,38.42 83.45,38.07 84.64,37.74 L84.64,37.74 C85.72,37.4466667 86.81,37.1766667 87.91,36.93 L87.91,36.93 C90.2233333,36.4033333 92.58,35.9566667 94.98,35.59 L95.22,35.59 C96.22,35.44 97.22,35.31 98.29,35.2 L99,35 C100.12,34.89 101.25,34.78 102.4,34.71 C102.92,34.71 103.4,34.71 103.97,34.63" id="Path" fill="url(#linearGradient-4)" fill-rule="nonzero" opacity="0.4"></path>
            <path d="M56.77,17.2 L56.77,17.2 C58.02,17.68 59.24,18.2 60.44,18.73 L61.05,19 C62.25,19.55 63.43,20.13 64.58,20.73 L64.76,20.82 C67.1778086,22.0926106 69.5155074,23.5119277 71.76,25.07 L71.76,25.07 C72.76,24.53 73.81,24 74.87,23.5 L74.95,23.45 C73.77,22.58 72.54,21.74 71.28,20.94 L70.92,20.71 C69.71,19.94 68.46,19.21 67.18,18.51 L66.65,18.22 C65.37,17.54 64.06,16.88 62.72,16.22 L62.2,16 C60.8,15.36 59.38,14.76 57.91,14.2 L57.91,14.2 L57.15,14 L56.85,13.89 L45.74,13.89 C47.6466667,14.33 49.5266667,14.83 51.38,15.39 C53.21,15.91 55,16.52 56.77,17.2 Z" id="Path" fill="url(#linearGradient-5)" fill-rule="nonzero" opacity="0.5"></path>
            <rect id="Rectangle" x="0" y="0" width="592.75" height="133.23"></rect>
        </g>
    </g>
</svg>